<?xml version="1.0" encoding="utf-8"?>
<!-- Generator: Adobe Illustrator 19.0.0, SVG Export Plug-In . SVG Version: 6.00 Build 0)  -->
<svg version="1.1" id="Layer_1" xmlns="http://www.w3.org/2000/svg" xmlns:xlink="http://www.w3.org/1999/xlink" x="0px" y="0px"
	 viewBox="0 0 128 128" style="enable-background:new 0 0 128 128;" xml:space="preserve">
<style type="text/css">
	.st0{fill:#2B51A8;}
	.st1{fill:#ADC0ED;}
</style>
<g>
	<path class="st0" d="M61.5,56.1c0,2.9-2.4,5.3-5.3,5.3H6.1c-2.9,0-5.3-2.4-5.3-5.3V5.9c0-2.9,2.4-5.3,5.3-5.3h50.2
		c2.9,0,5.3,2.4,5.3,5.3V56.1z"/>
</g>
<g>
	<path class="st0" d="M127,56.1c0,2.9-2.4,5.3-5.3,5.3H71.6c-2.9,0-5.3-2.4-5.3-5.3V5.9c0-2.9,2.4-5.3,5.3-5.3h50.2
		c2.9,0,5.3,2.4,5.3,5.3V56.1z"/>
</g>
<g>
	<path class="st1" d="M61.5,121.8c0,2.9-2.4,5.3-5.3,5.3H6.1c-2.9,0-5.3-2.4-5.3-5.3V71.6c0-2.9,2.4-5.3,5.3-5.3h50.2
		c2.9,0,5.3,2.4,5.3,5.3V121.8z"/>
</g>
<g>
	<path class="st0" d="M127,121.8c0,2.9-2.4,5.3-5.3,5.3H71.6c-2.9,0-5.3-2.4-5.3-5.3V71.6c0-2.9,2.4-5.3,5.3-5.3h50.2
		c2.9,0,5.3,2.4,5.3,5.3V121.8z"/>
</g>
</svg>
